<svg id="svg" version="1.1" xmlns="http://www.w3.org/2000/svg" xmlns:xlink="http://www.w3.org/1999/xlink" width="400" height="376.47058823529414" viewBox="0, 0, 400,376.47058823529414"><g id="svgg"><path id="path0" d="M192.655 49.899 C 192.301 50.057,189.442 50.373,180.603 51.232 C 178.531 51.434,175.734 51.920,174.388 52.313 C 173.041 52.706,171.092 53.130,170.056 53.256 C 169.020 53.382,167.325 53.802,166.290 54.190 C 165.254 54.578,163.559 55.016,162.524 55.164 C 161.488 55.312,160.132 55.737,159.510 56.108 C 158.889 56.479,157.710 56.902,156.891 57.048 C 156.072 57.194,154.766 57.638,153.987 58.035 C 153.209 58.432,152.354 58.758,152.087 58.758 C 151.819 58.759,150.584 59.267,149.341 59.887 C 148.098 60.507,146.894 61.015,146.665 61.016 C 146.162 61.017,138.106 64.681,135.217 66.221 C 116.406 76.253,97.606 93.242,85.997 110.700 C 82.601 115.807,79.530 121.018,78.206 123.917 C 77.875 124.642,77.447 125.490,77.253 125.800 C 76.675 126.730,74.200 132.048,74.200 132.360 C 74.200 132.519,73.861 133.080,73.446 133.607 C 73.032 134.134,72.693 135.013,72.693 135.560 C 72.693 136.108,72.396 136.973,72.034 137.483 C 71.671 137.992,71.016 139.428,70.579 140.674 C 70.141 141.919,69.597 143.446,69.370 144.068 C 66.894 150.848,65.039 159.037,63.298 170.884 C 62.144 178.738,61.955 194.499,62.925 202.072 C 63.110 203.522,63.448 206.318,63.675 208.286 C 64.253 213.291,66.834 224.983,68.373 229.567 C 70.646 236.337,71.368 238.229,72.034 239.165 C 72.396 239.675,72.693 240.540,72.693 241.088 C 72.693 241.635,73.032 242.514,73.446 243.041 C 73.861 243.567,74.200 244.128,74.200 244.287 C 74.200 244.596,76.667 249.902,77.250 250.847 C 77.442 251.158,77.919 252.090,78.310 252.919 C 78.925 254.222,80.031 256.195,83.449 262.090 C 86.902 268.044,96.114 279.531,103.055 286.536 C 109.732 293.276,122.978 303.526,130.697 307.926 C 136.056 310.981,145.687 315.629,146.665 315.632 C 146.894 315.633,148.098 316.141,149.341 316.761 C 150.584 317.381,151.819 317.889,152.087 317.889 C 152.354 317.890,153.209 318.216,153.987 318.613 C 154.766 319.010,156.072 319.456,156.891 319.605 C 157.710 319.754,158.979 320.176,159.711 320.544 C 160.442 320.911,161.995 321.388,163.161 321.604 C 164.328 321.820,165.900 322.254,166.655 322.570 C 167.411 322.885,168.909 323.251,169.984 323.382 C 171.060 323.513,173.041 323.942,174.388 324.335 C 175.734 324.728,178.531 325.214,180.603 325.414 C 182.674 325.615,186.064 325.991,188.136 326.249 C 192.993 326.853,206.587 326.873,211.676 326.284 C 213.851 326.032,217.326 325.647,219.397 325.428 C 221.469 325.210,224.266 324.712,225.612 324.323 C 226.959 323.933,229.077 323.496,230.320 323.350 C 231.562 323.205,233.050 322.843,233.625 322.546 C 234.200 322.248,235.635 321.826,236.815 321.608 C 237.994 321.390,239.593 320.888,240.369 320.493 C 241.144 320.098,242.166 319.772,242.640 319.771 C 243.115 319.769,244.350 319.350,245.386 318.841 C 246.422 318.331,247.541 317.909,247.872 317.903 C 248.204 317.896,249.272 317.467,250.246 316.949 C 251.220 316.431,252.203 316.008,252.429 316.008 C 253.499 316.008,263.558 311.188,269.303 307.922 C 277.044 303.522,289.993 293.511,296.809 286.657 C 303.842 279.585,313.050 268.126,316.551 262.090 C 319.969 256.195,321.075 254.222,321.690 252.919 C 322.081 252.090,322.558 251.158,322.750 250.847 C 323.438 249.732,325.800 244.568,325.800 244.180 C 325.800 243.962,326.050 243.576,326.355 243.323 C 326.661 243.069,327.019 242.244,327.151 241.488 C 327.283 240.732,327.669 239.689,328.008 239.171 C 328.639 238.207,329.436 236.091,331.627 229.567 C 333.139 225.062,335.746 213.303,336.302 208.475 C 336.517 206.610,336.894 203.644,337.140 201.883 C 337.396 200.046,337.587 194.269,337.587 188.324 C 337.587 182.379,337.396 176.602,337.140 174.765 C 336.894 173.004,336.517 170.038,336.302 168.173 C 335.746 163.345,333.139 151.586,331.627 147.081 C 329.354 140.311,328.632 138.419,327.966 137.483 C 327.604 136.973,327.307 136.108,327.307 135.560 C 327.307 135.013,326.968 134.134,326.554 133.607 C 326.139 133.080,325.800 132.519,325.800 132.360 C 325.800 132.048,323.325 126.730,322.747 125.800 C 322.553 125.490,322.125 124.642,321.794 123.917 C 312.204 102.908,288.361 78.834,264.512 66.081 C 261.570 64.508,252.981 60.640,252.429 60.640 C 252.203 60.640,251.220 60.217,250.246 59.699 C 249.272 59.181,248.263 58.757,248.004 58.757 C 247.745 58.757,246.626 58.335,245.518 57.819 C 244.409 57.303,243.115 56.880,242.640 56.878 C 242.166 56.875,241.144 56.550,240.369 56.155 C 239.593 55.759,237.994 55.257,236.815 55.039 C 235.635 54.821,234.172 54.385,233.563 54.071 C 232.955 53.756,231.467 53.393,230.258 53.263 C 229.049 53.134,226.991 52.710,225.685 52.320 C 224.378 51.931,221.497 51.424,219.282 51.195 C 217.067 50.966,213.983 50.623,212.429 50.433 C 209.375 50.059,193.274 49.624,192.655 49.899 M258.667 134.781 C 259.550 135.139,260.821 136.099,261.492 136.913 L 262.712 138.393 262.708 143.490 C 262.704 147.221,262.486 149.648,261.892 152.542 C 261.445 154.718,260.979 158.129,260.856 160.124 C 260.732 162.119,260.385 164.570,260.084 165.570 C 259.783 166.570,259.426 168.836,259.290 170.606 C 259.155 172.375,258.640 175.838,258.147 178.300 C 257.654 180.763,257.250 183.374,257.250 184.103 C 257.250 184.832,256.925 187.309,256.527 189.607 C 256.129 191.905,255.431 196.328,254.975 199.435 C 254.520 202.542,253.837 207.038,253.458 209.426 C 253.079 211.813,252.661 214.949,252.529 216.393 C 252.397 217.838,252.052 219.783,251.763 220.716 C 251.474 221.648,251.058 224.105,250.838 226.177 C 250.617 228.249,250.196 230.706,249.900 231.638 C 249.605 232.571,249.259 234.520,249.132 235.970 C 249.006 237.420,248.492 239.837,247.991 241.340 C 247.491 242.844,247.081 244.504,247.081 245.030 C 247.081 245.556,246.657 246.782,246.139 247.754 C 245.621 248.727,245.198 249.784,245.198 250.104 C 245.198 250.981,242.768 254.571,241.358 255.778 C 239.763 257.143,236.184 257.296,233.575 256.112 C 232.672 255.702,231.739 255.367,231.503 255.366 C 230.844 255.364,225.956 252.827,225.074 252.030 C 223.909 250.976,220.017 248.330,207.345 239.975 C 204.652 238.200,201.262 235.870,199.812 234.799 C 198.362 233.727,196.385 232.366,195.420 231.774 C 181.698 223.355,178.563 219.470,181.187 214.130 C 182.122 212.226,185.092 209.205,215.648 179.081 C 228.030 166.874,228.288 166.500,225.630 164.608 C 224.264 163.635,223.160 163.996,219.492 166.612 C 217.232 168.224,213.880 170.601,210.778 172.790 C 209.974 173.358,208.677 174.247,207.896 174.765 C 207.116 175.282,202.520 178.374,197.683 181.634 C 192.846 184.895,187.957 188.186,186.817 188.949 C 185.678 189.712,183.136 191.414,181.168 192.731 C 179.200 194.048,176.911 195.622,176.083 196.228 C 174.321 197.517,171.030 199.740,169.021 200.999 C 168.244 201.485,166.973 202.285,166.196 202.776 C 161.837 205.532,159.920 206.447,156.685 207.320 C 152.575 208.429,149.518 208.540,146.313 207.694 C 138.778 205.706,135.361 204.758,132.015 203.728 C 129.944 203.090,127.571 202.397,126.742 202.187 C 125.913 201.976,124.388 201.498,123.352 201.123 C 122.316 200.748,120.876 200.251,120.151 200.018 C 115.561 198.546,114.366 194.452,117.655 191.474 C 119.292 189.992,126.514 186.064,127.602 186.064 C 127.854 186.064,128.865 185.653,129.849 185.150 C 130.833 184.648,132.655 183.788,133.898 183.240 C 135.141 182.692,136.921 181.855,137.853 181.379 C 138.785 180.903,140.043 180.396,140.648 180.252 C 141.253 180.109,142.142 179.682,142.622 179.304 C 143.103 178.925,144.124 178.498,144.892 178.354 C 145.660 178.210,146.701 177.767,147.206 177.370 C 147.711 176.973,148.398 176.643,148.733 176.636 C 149.067 176.630,150.188 176.207,151.224 175.698 C 152.260 175.188,153.328 174.770,153.598 174.768 C 153.867 174.766,154.715 174.428,155.481 174.017 C 156.247 173.606,158.653 172.575,160.829 171.726 C 165.440 169.926,169.299 168.285,171.920 167.009 C 172.944 166.510,174.046 166.098,174.368 166.093 C 174.690 166.089,175.377 165.753,175.895 165.348 C 176.412 164.943,177.090 164.603,177.401 164.592 C 177.712 164.581,178.814 164.155,179.849 163.645 C 180.885 163.136,182.006 162.717,182.341 162.715 C 182.676 162.713,183.367 162.383,183.877 161.982 C 184.388 161.580,185.300 161.133,185.905 160.987 C 186.511 160.841,187.684 160.339,188.512 159.871 C 189.341 159.402,190.562 158.906,191.225 158.768 C 191.889 158.630,192.821 158.218,193.297 157.853 C 193.773 157.488,194.925 156.926,195.857 156.604 C 197.710 155.963,199.141 155.397,205.650 152.731 C 208.032 151.755,210.744 150.655,211.676 150.287 C 214.098 149.330,216.157 148.460,217.891 147.661 C 218.719 147.279,220.499 146.507,221.846 145.946 C 223.192 145.384,225.141 144.537,226.177 144.064 C 227.213 143.590,228.484 143.078,229.002 142.924 C 229.520 142.771,230.348 142.330,230.842 141.944 C 231.336 141.559,232.031 141.243,232.386 141.243 C 232.742 141.243,233.830 140.819,234.804 140.301 C 235.778 139.783,236.784 139.360,237.040 139.360 C 237.296 139.360,238.177 139.016,238.998 138.596 C 239.818 138.176,241.317 137.585,242.327 137.283 C 243.338 136.982,244.362 136.572,244.602 136.372 C 244.843 136.172,245.796 135.827,246.720 135.605 C 247.643 135.384,249.247 134.963,250.282 134.670 C 252.885 133.934,256.707 133.985,258.667 134.781 " stroke="none" fill="#f9f9f9" fill-rule="evenodd"></path><path id="path1" d="M0.000 188.324 L 0.000 376.648 200.000 376.648 L 400.000 376.648 400.000 188.324 L 400.000 0.000 200.000 0.000 L 0.000 0.000 0.000 188.324 M212.429 50.433 C 213.983 50.623,217.067 50.966,219.282 51.195 C 221.497 51.424,224.378 51.931,225.685 52.320 C 226.991 52.710,229.049 53.134,230.258 53.263 C 231.467 53.393,232.955 53.756,233.563 54.071 C 234.172 54.385,235.635 54.821,236.815 55.039 C 237.994 55.257,239.593 55.759,240.369 56.155 C 241.144 56.550,242.166 56.875,242.640 56.878 C 243.115 56.880,244.409 57.303,245.518 57.819 C 246.626 58.335,247.745 58.757,248.004 58.757 C 248.263 58.757,249.272 59.181,250.246 59.699 C 251.220 60.217,252.203 60.640,252.429 60.640 C 252.981 60.640,261.570 64.508,264.512 66.081 C 287.134 78.178,307.012 97.523,319.488 119.586 C 320.425 121.243,321.463 123.192,321.794 123.917 C 322.125 124.642,322.553 125.490,322.747 125.800 C 323.325 126.730,325.800 132.048,325.800 132.360 C 325.800 132.519,326.139 133.080,326.554 133.607 C 326.968 134.134,327.307 135.013,327.307 135.560 C 327.307 136.108,327.604 136.973,327.966 137.483 C 328.632 138.419,329.354 140.311,331.627 147.081 C 333.139 151.586,335.746 163.345,336.302 168.173 C 336.517 170.038,336.894 173.004,337.140 174.765 C 337.396 176.602,337.587 182.379,337.587 188.324 C 337.587 194.269,337.396 200.046,337.140 201.883 C 336.894 203.644,336.517 206.610,336.302 208.475 C 335.746 213.303,333.139 225.062,331.627 229.567 C 329.436 236.091,328.639 238.207,328.008 239.171 C 327.669 239.689,327.283 240.732,327.151 241.488 C 327.019 242.244,326.661 243.069,326.355 243.323 C 326.050 243.576,325.800 243.962,325.800 244.180 C 325.800 244.568,323.438 249.732,322.750 250.847 C 322.558 251.158,322.081 252.090,321.690 252.919 C 321.075 254.222,319.969 256.195,316.551 262.090 C 313.050 268.126,303.842 279.585,296.809 286.657 C 289.993 293.511,277.044 303.522,269.303 307.922 C 263.558 311.188,253.499 316.008,252.429 316.008 C 252.203 316.008,251.220 316.431,250.246 316.949 C 249.272 317.467,248.204 317.896,247.872 317.903 C 247.541 317.909,246.422 318.331,245.386 318.841 C 244.350 319.350,243.115 319.769,242.640 319.771 C 242.166 319.772,241.144 320.098,240.369 320.493 C 239.593 320.888,237.994 321.390,236.815 321.608 C 235.635 321.826,234.200 322.248,233.625 322.546 C 233.050 322.843,231.562 323.205,230.320 323.350 C 229.077 323.496,226.959 323.933,225.612 324.323 C 224.266 324.712,221.469 325.210,219.397 325.428 C 217.326 325.647,213.851 326.032,211.676 326.284 C 206.587 326.873,192.993 326.853,188.136 326.249 C 186.064 325.991,182.674 325.615,180.603 325.414 C 178.531 325.214,175.734 324.728,174.388 324.335 C 173.041 323.942,171.060 323.513,169.984 323.382 C 168.909 323.251,167.411 322.885,166.655 322.570 C 165.900 322.254,164.328 321.820,163.161 321.604 C 161.995 321.388,160.442 320.911,159.711 320.544 C 158.979 320.176,157.710 319.754,156.891 319.605 C 156.072 319.456,154.766 319.010,153.987 318.613 C 153.209 318.216,152.354 317.890,152.087 317.889 C 151.819 317.889,150.584 317.381,149.341 316.761 C 148.098 316.141,146.894 315.633,146.665 315.632 C 145.687 315.629,136.056 310.981,130.697 307.926 C 122.978 303.526,109.732 293.276,103.055 286.536 C 96.114 279.531,86.902 268.044,83.449 262.090 C 80.031 256.195,78.925 254.222,78.310 252.919 C 77.919 252.090,77.442 251.158,77.250 250.847 C 76.667 249.902,74.200 244.596,74.200 244.287 C 74.200 244.128,73.861 243.567,73.446 243.041 C 73.032 242.514,72.693 241.635,72.693 241.088 C 72.693 240.540,72.396 239.675,72.034 239.165 C 71.368 238.229,70.646 236.337,68.373 229.567 C 66.834 224.983,64.253 213.291,63.675 208.286 C 63.448 206.318,63.110 203.522,62.925 202.072 C 61.955 194.499,62.144 178.738,63.298 170.884 C 65.039 159.037,66.894 150.848,69.370 144.068 C 69.597 143.446,70.141 141.919,70.579 140.674 C 71.016 139.428,71.671 137.992,72.034 137.483 C 72.396 136.973,72.693 136.108,72.693 135.560 C 72.693 135.013,73.032 134.134,73.446 133.607 C 73.861 133.080,74.200 132.519,74.200 132.360 C 74.200 132.048,76.675 126.730,77.253 125.800 C 77.447 125.490,77.875 124.642,78.206 123.917 C 86.011 106.818,104.917 85.842,124.294 72.783 C 131.029 68.244,144.758 61.022,146.665 61.016 C 146.894 61.015,148.098 60.507,149.341 59.887 C 150.584 59.267,151.819 58.759,152.087 58.758 C 152.354 58.758,153.209 58.432,153.987 58.035 C 154.766 57.638,156.072 57.194,156.891 57.048 C 157.710 56.902,158.889 56.479,159.510 56.108 C 160.132 55.737,161.488 55.312,162.524 55.164 C 163.559 55.016,165.254 54.578,166.290 54.190 C 167.325 53.802,169.020 53.382,170.056 53.256 C 171.092 53.130,173.041 52.706,174.388 52.313 C 175.734 51.920,178.531 51.434,180.603 51.232 C 189.442 50.373,192.301 50.057,192.655 49.899 C 193.274 49.624,209.375 50.059,212.429 50.433 M250.282 134.670 C 249.247 134.963,247.643 135.384,246.720 135.605 C 245.796 135.827,244.843 136.172,244.602 136.372 C 244.362 136.572,243.338 136.982,242.327 137.283 C 241.317 137.585,239.818 138.176,238.998 138.596 C 238.177 139.016,237.296 139.360,237.040 139.360 C 236.784 139.360,235.778 139.783,234.804 140.301 C 233.830 140.819,232.742 141.243,232.386 141.243 C 232.031 141.243,231.336 141.559,230.842 141.944 C 230.348 142.330,229.520 142.771,229.002 142.924 C 228.484 143.078,227.213 143.590,226.177 144.064 C 225.141 144.537,223.192 145.384,221.846 145.946 C 220.499 146.507,218.719 147.279,217.891 147.661 C 216.157 148.460,214.098 149.330,211.676 150.287 C 210.744 150.655,208.032 151.755,205.650 152.731 C 199.141 155.397,197.710 155.963,195.857 156.604 C 194.925 156.926,193.773 157.488,193.297 157.853 C 192.821 158.218,191.889 158.630,191.225 158.768 C 190.562 158.906,189.341 159.402,188.512 159.871 C 187.684 160.339,186.511 160.841,185.905 160.987 C 185.300 161.133,184.388 161.580,183.877 161.982 C 183.367 162.383,182.676 162.713,182.341 162.715 C 182.006 162.717,180.885 163.136,179.849 163.645 C 178.814 164.155,177.712 164.581,177.401 164.592 C 177.090 164.603,176.412 164.943,175.895 165.348 C 175.377 165.753,174.690 166.089,174.368 166.093 C 174.046 166.098,172.944 166.510,171.920 167.009 C 169.299 168.285,165.440 169.926,160.829 171.726 C 158.653 172.575,156.247 173.606,155.481 174.017 C 154.715 174.428,153.867 174.766,153.598 174.768 C 153.328 174.770,152.260 175.188,151.224 175.698 C 150.188 176.207,149.067 176.630,148.733 176.636 C 148.398 176.643,147.711 176.973,147.206 177.370 C 146.701 177.767,145.660 178.210,144.892 178.354 C 144.124 178.498,143.103 178.925,142.622 179.304 C 142.142 179.682,141.253 180.109,140.648 180.252 C 140.043 180.396,138.785 180.903,137.853 181.379 C 136.921 181.855,135.141 182.692,133.898 183.240 C 132.655 183.788,130.833 184.648,129.849 185.150 C 128.865 185.653,127.854 186.064,127.602 186.064 C 126.514 186.064,119.292 189.992,117.655 191.474 C 114.366 194.452,115.561 198.546,120.151 200.018 C 120.876 200.251,122.316 200.748,123.352 201.123 C 124.388 201.498,125.913 201.976,126.742 202.187 C 127.571 202.397,129.944 203.090,132.015 203.728 C 135.361 204.758,138.778 205.706,146.313 207.694 C 149.518 208.540,152.575 208.429,156.685 207.320 C 159.920 206.447,161.837 205.532,166.196 202.776 C 166.973 202.285,168.244 201.485,169.021 200.999 C 171.030 199.740,174.321 197.517,176.083 196.228 C 176.911 195.622,179.200 194.048,181.168 192.731 C 183.136 191.414,185.678 189.712,186.817 188.949 C 187.957 188.186,192.846 184.895,197.683 181.634 C 202.520 178.374,207.116 175.282,207.896 174.765 C 208.677 174.247,209.974 173.358,210.778 172.790 C 213.880 170.601,217.232 168.224,219.492 166.612 C 223.160 163.996,224.264 163.635,225.630 164.608 C 228.288 166.500,228.030 166.874,215.648 179.081 C 185.092 209.205,182.122 212.226,181.187 214.130 C 178.563 219.470,181.698 223.355,195.420 231.774 C 196.385 232.366,198.362 233.727,199.812 234.799 C 201.262 235.870,204.652 238.200,207.345 239.975 C 220.017 248.330,223.909 250.976,225.074 252.030 C 225.956 252.827,230.844 255.364,231.503 255.366 C 231.739 255.367,232.672 255.702,233.575 256.112 C 236.184 257.296,239.763 257.143,241.358 255.778 C 242.768 254.571,245.198 250.981,245.198 250.104 C 245.198 249.784,245.621 248.727,246.139 247.754 C 246.657 246.782,247.081 245.556,247.081 245.030 C 247.081 244.504,247.491 242.844,247.991 241.340 C 248.492 239.837,249.006 237.420,249.132 235.970 C 249.259 234.520,249.605 232.571,249.900 231.638 C 250.196 230.706,250.617 228.249,250.838 226.177 C 251.058 224.105,251.474 221.648,251.763 220.716 C 252.052 219.783,252.397 217.838,252.529 216.393 C 252.661 214.949,253.079 211.813,253.458 209.426 C 253.837 207.038,254.520 202.542,254.975 199.435 C 255.431 196.328,256.129 191.905,256.527 189.607 C 256.925 187.309,257.250 184.832,257.250 184.103 C 257.250 183.374,257.654 180.763,258.147 178.300 C 258.640 175.838,259.155 172.375,259.290 170.606 C 259.426 168.836,259.783 166.570,260.084 165.570 C 260.385 164.570,260.732 162.119,260.856 160.124 C 260.979 158.129,261.445 154.718,261.892 152.542 C 262.486 149.648,262.704 147.221,262.708 143.490 L 262.712 138.393 261.492 136.913 C 259.321 134.278,254.841 133.381,250.282 134.670 " stroke="none" fill="#040404" fill-rule="evenodd"></path></g></svg>