<svg xmlns="http://www.w3.org/2000/svg" viewBox="-1 -1 26 26" width="20" height="20" aria-hidden="true">
  <path fill="#25D366" d="M20.5 3.5A11 11 0 0 0 3.2 17.9L2 22l4.2-1.1A11 11 0 1 0 20.5 3.5zm-8.5 17a9 9 0 0 1-4.6-1.3l-.3-.2-2.7.7.7-2.6-.2-.3A9 9 0 1 1 12 20.5zm5.1-6.7c-.3-.1-1.8-.9-2.1-1s-.5-.1-.7.1-.8 1-.9 1.1-.3.2-.6.1a7.5 7.5 0 0 1-2.2-1.4 8.3 8.3 0 0 1-1.5-2.2c-.1-.3 0-.5.1-.6l.5-.6c.2-.2.3-.3.4-.5l.2-.4c0-.2 0-.4-.1-.5s-.7-1.7-.9-2.2c-.3-.7-.6-.6-.8-.6h-.7c-.2 0-.5.1-.7.3-.3.3-1 1-1 2.5s1 2.9 1.1 3.1 2.1 3.2 5 4.4c.7.3 1.2.5 1.6.6.7.2 1.3.2 1.8.1.6-.1 1.8-.7 2-1.3.3-.6.3-1.2.2-1.3 0 0-.2-.1-.5-.2z"/>
</svg>
