<svg id="svg" version="1.1" xmlns="http://www.w3.org/2000/svg" xmlns:xlink="http://www.w3.org/1999/xlink" width="400" height="376.47058823529414" viewBox="0, 0, 400,376.47058823529414"><g id="svgg"><path id="path0" d="M187.759 21.481 C 184.030 21.627,179.539 22.015,177.778 22.342 C 176.017 22.669,173.220 23.112,171.563 23.327 C 168.542 23.718,167.678 23.900,158.935 25.990 C 153.333 27.330,145.061 29.865,142.913 30.900 C 142.071 31.306,141.132 31.638,140.827 31.638 C 140.522 31.638,139.615 31.974,138.811 32.383 C 138.007 32.793,136.743 33.326,136.001 33.568 C 135.259 33.810,134.272 34.303,133.807 34.664 C 133.343 35.025,132.386 35.428,131.680 35.561 C 130.974 35.693,130.196 36.043,129.951 36.337 C 129.707 36.632,128.885 37.072,128.124 37.315 C 127.364 37.559,126.403 38.056,125.989 38.421 C 125.574 38.786,124.812 39.207,124.294 39.356 C 123.776 39.505,122.942 39.886,122.441 40.202 C 121.940 40.519,120.415 41.367,119.051 42.087 C 110.917 46.382,101.425 52.864,96.756 57.315 C 96.054 57.983,94.633 59.118,93.597 59.835 C 88.568 63.321,77.825 74.041,71.464 81.921 C 71.130 82.335,70.229 83.437,69.462 84.369 C 65.800 88.822,60.640 96.250,60.640 97.068 C 60.640 97.283,60.374 97.681,60.048 97.951 C 59.722 98.222,59.086 99.104,58.635 99.913 C 58.184 100.721,57.556 101.846,57.238 102.412 C 56.920 102.977,56.285 103.918,55.825 104.502 C 55.366 105.085,54.991 105.772,54.991 106.026 C 54.991 106.281,54.677 106.894,54.293 107.388 C 53.535 108.364,50.170 114.857,48.047 119.441 C 46.378 123.043,43.356 131.014,42.067 135.217 C 41.526 136.977,40.808 139.266,40.471 140.301 C 40.133 141.337,39.694 143.032,39.493 144.068 C 39.293 145.104,38.868 146.714,38.549 147.646 C 38.230 148.578,37.806 150.273,37.607 151.412 C 36.929 155.284,36.411 157.626,36.087 158.278 C 35.909 158.636,35.598 160.754,35.396 162.986 C 35.194 165.218,34.731 168.315,34.369 169.868 C 33.545 173.399,33.391 203.897,34.188 205.747 C 34.434 206.318,34.818 208.691,35.042 211.020 C 35.265 213.349,35.784 216.502,36.194 218.026 C 36.605 219.551,37.094 222.012,37.282 223.496 C 37.471 224.979,37.969 226.952,38.390 227.880 C 38.810 228.808,39.166 230.160,39.180 230.885 C 39.193 231.610,39.464 232.881,39.781 233.710 C 40.099 234.539,40.587 236.149,40.866 237.288 C 42.694 244.742,51.055 264.725,53.925 268.499 C 55.503 270.574,55.496 273.940,53.905 278.125 C 53.505 279.177,53.008 280.885,52.800 281.921 C 52.591 282.957,52.174 284.567,51.872 285.499 C 51.371 287.047,50.960 288.560,49.721 293.409 C 49.483 294.341,48.961 296.205,48.561 297.552 C 48.162 298.898,47.229 302.373,46.489 305.273 C 45.749 308.173,44.802 311.817,44.385 313.371 C 42.511 320.355,41.703 323.536,41.181 325.989 C 40.873 327.439,40.396 329.134,40.121 329.755 C 39.846 330.377,39.443 332.046,39.227 333.464 C 39.010 334.883,38.576 336.436,38.261 336.916 C 37.947 337.396,37.505 338.947,37.280 340.363 C 37.055 341.779,36.631 343.304,36.340 343.751 C 36.048 344.198,35.649 345.554,35.453 346.764 C 35.257 347.974,34.733 349.882,34.290 351.004 C 32.741 354.923,34.261 356.132,38.850 354.632 C 39.852 354.304,42.242 353.697,44.159 353.284 C 48.654 352.316,53.018 351.331,58.192 350.115 C 65.413 348.419,69.024 347.596,72.316 346.895 C 74.077 346.520,76.281 345.960,77.213 345.651 C 78.145 345.342,79.788 344.982,80.863 344.851 C 81.939 344.720,83.450 344.349,84.221 344.027 C 84.992 343.705,86.654 343.279,87.915 343.082 C 89.176 342.884,91.182 342.389,92.374 341.982 C 93.566 341.576,94.970 341.243,95.494 341.243 C 96.017 341.243,97.500 340.886,98.788 340.451 C 100.076 340.015,102.197 339.506,103.501 339.320 C 104.804 339.134,106.499 338.667,107.267 338.282 C 108.035 337.897,109.765 337.484,111.111 337.363 C 112.458 337.242,114.322 336.815,115.254 336.414 C 117.831 335.304,120.540 335.120,122.079 335.950 C 122.779 336.327,125.471 337.677,128.060 338.950 C 130.650 340.224,133.556 341.684,134.519 342.196 C 135.482 342.708,136.505 343.126,136.793 343.126 C 137.081 343.126,137.989 343.482,138.809 343.916 C 139.630 344.350,140.810 344.847,141.431 345.020 C 142.053 345.193,143.748 345.783,145.198 346.331 C 149.497 347.954,161.139 351.199,164.783 351.789 C 165.819 351.957,167.938 352.350,169.492 352.662 C 181.583 355.093,211.135 356.079,219.962 354.346 C 221.723 354.000,224.772 353.529,226.739 353.299 C 228.705 353.070,231.077 352.701,232.012 352.481 C 232.946 352.261,234.812 351.870,236.158 351.614 C 241.601 350.577,249.274 348.351,257.627 345.385 C 258.352 345.128,259.839 344.514,260.931 344.022 C 262.023 343.529,263.092 343.126,263.307 343.126 C 264.493 343.126,283.151 333.412,288.512 330.003 C 289.859 329.147,291.469 328.167,292.090 327.826 C 293.752 326.914,301.228 321.246,303.276 319.345 C 304.249 318.441,305.764 317.194,306.642 316.573 C 315.333 310.421,332.176 291.735,338.643 281.069 C 339.555 279.565,340.765 277.616,341.331 276.738 C 341.897 275.860,342.566 274.718,342.816 274.200 C 343.067 273.682,343.534 272.946,343.854 272.564 C 344.581 271.697,345.990 269.245,348.002 265.348 C 348.857 263.691,349.704 262.081,349.884 261.770 C 350.065 261.460,350.755 260.019,351.419 258.569 C 352.082 257.119,352.870 255.436,353.169 254.830 C 354.003 253.141,356.865 245.391,357.979 241.808 C 358.526 240.047,359.239 237.844,359.563 236.911 C 359.887 235.979,360.384 233.990,360.667 232.491 C 360.949 230.992,361.439 229.265,361.756 228.653 C 362.073 228.041,362.505 226.317,362.717 224.822 C 362.929 223.328,363.427 220.987,363.823 219.621 C 364.219 218.255,364.653 215.725,364.786 214.000 C 364.920 212.274,365.295 209.901,365.621 208.727 C 366.877 204.199,366.868 172.289,365.610 167.232 C 365.275 165.885,364.837 163.089,364.638 161.017 C 364.438 158.945,363.999 156.488,363.662 155.556 C 363.326 154.623,362.899 152.671,362.713 151.216 C 362.527 149.762,362.031 147.813,361.610 146.885 C 361.190 145.957,360.841 144.649,360.837 143.978 C 360.832 143.307,360.483 141.866,360.060 140.776 C 359.638 139.686,359.137 138.117,358.947 137.288 C 358.086 133.536,355.000 125.322,351.516 117.514 C 350.634 115.536,350.350 114.952,349.552 113.465 C 346.511 107.803,344.725 104.702,344.006 103.832 C 343.522 103.246,343.126 102.539,343.126 102.260 C 343.126 101.981,342.702 101.249,342.185 100.634 C 341.667 100.018,341.243 99.379,341.243 99.213 C 341.243 98.916,340.978 98.492,338.004 94.027 C 337.196 92.813,336.111 91.178,335.593 90.394 C 330.381 82.504,317.616 68.718,308.286 60.900 C 305.386 58.470,302.335 55.901,301.507 55.190 C 296.875 51.220,283.858 42.926,276.648 39.353 C 275.612 38.839,274.510 38.265,274.200 38.077 C 273.650 37.745,270.304 36.179,266.478 34.463 C 265.443 33.999,263.832 33.265,262.900 32.832 C 258.414 30.750,242.456 25.743,237.665 24.915 C 236.525 24.718,234.322 24.294,232.768 23.974 C 220.589 21.458,207.199 20.717,187.759 21.481 M212.618 55.386 C 215.725 55.576,218.861 55.906,219.586 56.120 C 220.311 56.335,222.599 56.695,224.670 56.920 C 226.742 57.146,229.009 57.567,229.707 57.856 C 230.406 58.144,232.078 58.557,233.422 58.771 C 234.767 58.986,236.483 59.471,237.236 59.848 C 237.990 60.226,239.333 60.646,240.221 60.782 C 241.109 60.919,242.462 61.366,243.229 61.777 C 243.995 62.188,244.895 62.524,245.230 62.524 C 245.565 62.524,246.636 62.947,247.610 63.465 C 248.584 63.983,249.572 64.407,249.805 64.407 C 252.247 64.407,268.013 73.094,278.480 80.208 C 285.168 84.753,302.319 101.657,306.204 107.534 C 306.521 108.013,308.072 110.327,309.651 112.677 C 312.977 117.624,316.008 122.358,316.008 122.605 C 316.008 122.699,317.172 124.955,318.595 127.618 C 320.018 130.282,321.383 133.067,321.628 133.808 C 321.872 134.550,322.314 135.356,322.608 135.601 C 322.903 135.845,323.252 136.664,323.383 137.420 C 323.515 138.176,324.011 139.642,324.486 140.678 C 325.660 143.240,328.091 151.405,329.533 157.627 C 332.165 168.981,333.522 186.222,332.581 196.328 C 332.373 198.555,332.026 202.269,331.809 204.582 C 331.592 206.895,331.259 209.479,331.069 210.326 C 330.879 211.172,330.449 213.305,330.113 215.066 C 329.080 220.480,328.567 222.656,327.493 226.177 C 326.925 228.041,326.123 230.753,325.713 232.203 C 325.302 233.653,324.732 235.105,324.446 235.430 C 324.160 235.754,323.817 236.601,323.683 237.313 C 323.549 238.024,323.050 239.369,322.573 240.301 C 322.097 241.234,320.657 244.115,319.373 246.704 C 318.089 249.294,316.594 252.190,316.052 253.141 C 315.510 254.091,314.746 255.447,314.354 256.154 C 307.187 269.094,291.300 286.852,279.508 295.104 C 278.620 295.725,277.359 296.670,276.706 297.203 C 273.804 299.571,259.935 307.527,257.045 308.480 C 256.335 308.715,255.665 309.051,255.556 309.228 C 255.446 309.405,254.724 309.756,253.950 310.008 C 253.176 310.261,252.144 310.777,251.657 311.156 C 251.170 311.535,250.154 311.960,249.400 312.102 C 248.646 312.243,247.282 312.756,246.369 313.242 C 245.456 313.727,244.388 314.124,243.997 314.124 C 243.605 314.124,242.629 314.459,241.827 314.868 C 241.026 315.276,239.635 315.720,238.735 315.853 C 237.836 315.986,236.532 316.419,235.838 316.814 C 235.143 317.210,233.533 317.638,232.259 317.766 C 230.986 317.894,229.181 318.293,228.249 318.653 C 227.316 319.012,225.282 319.428,223.729 319.576 C 222.175 319.723,218.955 320.173,216.573 320.573 C 210.219 321.643,190.142 321.649,183.804 320.583 C 181.422 320.183,178.205 319.738,176.655 319.595 C 175.105 319.452,173.246 319.088,172.523 318.786 C 171.801 318.484,169.959 318.063,168.431 317.850 C 166.902 317.638,165.033 317.151,164.276 316.768 C 163.519 316.385,162.137 315.955,161.205 315.811 C 160.273 315.668,158.982 315.230,158.336 314.838 C 157.690 314.445,156.829 314.124,156.422 314.124 C 156.016 314.124,154.858 313.707,153.850 313.196 C 152.842 312.686,151.500 312.156,150.867 312.019 C 150.235 311.882,149.124 311.465,148.399 311.092 C 147.674 310.718,143.776 308.773,139.736 306.768 C 135.697 304.763,131.205 302.429,129.755 301.581 C 126.280 299.549,124.288 299.384,118.975 300.687 C 116.825 301.215,113.117 302.081,110.734 302.612 C 108.352 303.143,105.471 303.818,104.331 304.112 C 100.059 305.216,93.953 306.600,93.378 306.596 C 93.050 306.593,91.694 306.913,90.365 307.307 C 87.213 308.241,81.699 309.251,81.255 308.977 C 81.063 308.859,80.996 308.316,81.104 307.771 C 81.460 305.984,82.149 303.421,82.736 301.695 C 83.054 300.763,83.558 298.898,83.857 297.552 C 84.156 296.205,84.713 294.087,85.095 292.844 C 85.477 291.601,85.979 289.821,86.210 288.889 C 88.044 281.494,89.001 277.809,89.632 275.706 C 90.036 274.360,90.485 272.495,90.630 271.563 C 90.775 270.631,91.100 269.373,91.353 268.768 C 92.017 267.180,91.891 266.844,87.951 259.699 C 86.163 256.456,83.945 252.515,83.606 251.977 C 83.410 251.667,82.454 249.802,81.482 247.834 C 80.510 245.866,79.406 243.852,79.029 243.358 C 78.651 242.864,78.343 242.092,78.343 241.642 C 78.343 241.192,77.919 240.250,77.401 239.548 C 76.883 238.846,76.460 237.873,76.460 237.385 C 76.460 236.897,76.196 235.987,75.873 235.364 C 75.100 233.869,72.693 226.421,72.693 225.524 C 72.693 225.137,72.462 224.364,72.179 223.804 C 71.896 223.245,71.448 221.601,71.184 220.151 C 70.920 218.701,70.548 217.097,70.359 216.586 C 70.169 216.076,69.762 214.042,69.454 212.066 C 66.033 190.127,67.452 166.743,73.318 148.399 C 73.616 147.467,74.112 145.694,74.421 144.458 C 74.729 143.223,75.229 141.939,75.531 141.605 C 75.834 141.271,76.226 140.221,76.403 139.272 C 76.581 138.324,77.089 137.085,77.534 136.520 C 77.979 135.954,78.343 135.273,78.343 135.006 C 78.343 134.739,79.465 132.346,80.837 129.689 C 82.209 127.033,83.672 124.181,84.089 123.352 C 85.429 120.690,90.849 112.252,93.975 107.963 C 99.230 100.751,112.560 87.125,118.514 82.879 C 119.518 82.164,121.213 80.850,122.282 79.960 C 123.351 79.071,124.345 78.343,124.492 78.343 C 124.638 78.343,125.882 77.610,127.256 76.714 C 128.631 75.819,130.687 74.484,131.827 73.748 C 135.562 71.337,149.769 64.407,150.977 64.407 C 151.368 64.407,152.092 64.090,152.586 63.703 C 153.080 63.315,154.077 62.871,154.802 62.715 C 155.527 62.559,156.722 62.127,157.456 61.756 C 158.191 61.384,159.460 60.955,160.276 60.801 C 161.092 60.648,162.610 60.127,163.649 59.644 C 164.687 59.160,166.251 58.763,167.124 58.761 C 167.996 58.759,169.551 58.426,170.579 58.021 C 171.607 57.615,173.350 57.182,174.454 57.058 C 175.557 56.933,178.409 56.499,180.791 56.093 C 188.519 54.775,198.839 54.546,212.618 55.386 M139.171 110.592 C 138.757 110.698,137.910 111.015,137.288 111.296 C 136.667 111.577,135.694 111.922,135.127 112.063 C 132.889 112.621,123.863 122.451,121.319 127.102 C 119.611 130.223,117.514 135.339,117.514 136.384 C 117.514 136.788,117.161 138.089,116.730 139.275 C 115.784 141.880,115.303 153.240,115.953 157.627 C 117.674 169.230,124.027 183.673,131.426 192.805 C 132.165 193.716,133.107 195.013,133.522 195.687 C 134.264 196.895,135.940 199.362,139.765 204.876 C 145.446 213.062,162.458 231.197,169.110 236.158 C 171.111 237.651,173.308 239.423,175.141 241.024 C 180.746 245.921,199.828 256.874,202.753 256.874 C 203.042 256.874,204.025 257.271,204.938 257.756 C 205.851 258.242,207.215 258.755,207.969 258.896 C 208.723 259.038,209.765 259.488,210.285 259.897 C 210.805 260.306,211.549 260.640,211.938 260.640 C 212.328 260.640,213.318 260.985,214.139 261.407 C 214.959 261.829,216.394 262.362,217.326 262.592 C 218.258 262.822,219.457 263.229,219.990 263.496 C 220.523 263.762,222.218 264.310,223.757 264.713 C 225.295 265.116,227.062 265.620,227.684 265.834 C 241.703 270.655,259.161 268.895,268.538 261.714 C 269.063 261.313,270.424 260.381,271.563 259.644 C 278.429 255.200,281.881 249.681,284.013 239.736 C 284.520 237.375,284.433 228.589,283.893 227.495 C 283.484 226.669,273.676 221.387,268.706 219.317 C 268.102 219.065,267.354 218.695,267.043 218.493 C 266.733 218.292,265.970 217.893,265.348 217.607 C 264.727 217.322,263.879 216.891,263.465 216.651 C 263.051 216.411,262.119 215.960,261.394 215.648 C 260.669 215.336,259.821 214.912,259.510 214.706 C 259.200 214.500,258.352 214.076,257.627 213.764 C 256.902 213.453,256.055 213.040,255.744 212.847 C 255.433 212.654,254.247 212.067,253.107 211.542 C 242.704 206.754,241.170 206.972,236.236 213.936 C 229.174 223.904,223.368 229.755,220.537 229.755 C 217.909 229.755,203.926 223.407,198.117 219.577 C 197.185 218.962,195.993 218.246,195.469 217.987 C 191.170 215.855,173.539 199.644,170.172 194.727 C 169.818 194.209,168.745 192.684,167.788 191.337 C 165.025 187.449,161.631 182.206,159.941 179.217 C 158.257 176.237,158.909 173.503,161.993 170.621 C 169.452 163.650,174.534 152.446,171.676 149.274 C 171.335 148.897,170.935 148.079,170.786 147.458 C 170.637 146.836,170.252 145.819,169.929 145.198 C 169.606 144.576,169.056 143.305,168.708 142.373 C 166.091 135.374,162.183 125.455,161.214 123.352 C 160.832 122.524,160.065 120.829,159.511 119.586 C 158.956 118.343,158.390 117.139,158.253 116.911 C 154.952 111.423,153.457 110.657,145.763 110.509 C 142.552 110.448,139.586 110.485,139.171 110.592 " stroke="none" fill="#f7f7f7" fill-rule="evenodd"></path><path id="path1" d="M0.000 188.324 L 0.000 376.648 200.000 376.648 L 400.000 376.648 400.000 188.324 L 400.000 0.000 200.000 0.000 L 0.000 0.000 0.000 188.324 M211.299 21.441 C 219.040 21.725,225.664 22.506,232.768 23.974 C 234.322 24.294,236.525 24.718,237.665 24.915 C 240.540 25.412,247.092 27.284,254.049 29.596 C 259.606 31.443,261.025 31.962,262.900 32.832 C 263.832 33.265,265.443 33.999,266.478 34.463 C 270.304 36.179,273.650 37.745,274.200 38.077 C 274.510 38.265,275.612 38.839,276.648 39.353 C 283.858 42.926,296.875 51.220,301.507 55.190 C 302.335 55.901,305.386 58.470,308.286 60.900 C 317.616 68.718,330.381 82.504,335.593 90.394 C 336.111 91.178,337.196 92.813,338.004 94.027 C 340.978 98.492,341.243 98.916,341.243 99.213 C 341.243 99.379,341.667 100.018,342.185 100.634 C 342.702 101.249,343.126 101.981,343.126 102.260 C 343.126 102.539,343.522 103.246,344.006 103.832 C 344.725 104.702,346.511 107.803,349.552 113.465 C 350.350 114.952,350.634 115.536,351.516 117.514 C 355.000 125.322,358.086 133.536,358.947 137.288 C 359.137 138.117,359.638 139.686,360.060 140.776 C 360.483 141.866,360.832 143.307,360.837 143.978 C 360.841 144.649,361.190 145.957,361.610 146.885 C 362.031 147.813,362.527 149.762,362.713 151.216 C 362.899 152.671,363.326 154.623,363.662 155.556 C 363.999 156.488,364.438 158.945,364.638 161.017 C 364.837 163.089,365.275 165.885,365.610 167.232 C 366.868 172.289,366.877 204.199,365.621 208.727 C 365.295 209.901,364.920 212.274,364.786 214.000 C 364.653 215.725,364.219 218.255,363.823 219.621 C 363.427 220.987,362.929 223.328,362.717 224.822 C 362.505 226.317,362.073 228.041,361.756 228.653 C 361.439 229.265,360.949 230.992,360.667 232.491 C 360.384 233.990,359.887 235.979,359.563 236.911 C 359.239 237.844,358.526 240.047,357.979 241.808 C 356.865 245.391,354.003 253.141,353.169 254.830 C 352.870 255.436,352.082 257.119,351.419 258.569 C 350.755 260.019,350.065 261.460,349.884 261.770 C 349.704 262.081,348.857 263.691,348.002 265.348 C 345.990 269.245,344.581 271.697,343.854 272.564 C 343.534 272.946,343.067 273.682,342.816 274.200 C 342.566 274.718,341.897 275.860,341.331 276.738 C 340.765 277.616,339.555 279.565,338.643 281.069 C 332.176 291.735,315.333 310.421,306.642 316.573 C 305.764 317.194,304.249 318.441,303.276 319.345 C 301.228 321.246,293.752 326.914,292.090 327.826 C 291.469 328.167,289.859 329.147,288.512 330.003 C 283.151 333.412,264.493 343.126,263.307 343.126 C 263.092 343.126,262.023 343.529,260.931 344.022 C 259.839 344.514,258.352 345.128,257.627 345.385 C 249.274 348.351,241.601 350.577,236.158 351.614 C 234.812 351.870,232.946 352.261,232.012 352.481 C 231.077 352.701,228.705 353.070,226.739 353.299 C 224.772 353.529,221.723 354.000,219.962 354.346 C 211.135 356.079,181.583 355.093,169.492 352.662 C 167.938 352.350,165.819 351.957,164.783 351.789 C 161.139 351.199,149.497 347.954,145.198 346.331 C 143.748 345.783,142.053 345.193,141.431 345.020 C 140.810 344.847,139.630 344.350,138.809 343.916 C 137.989 343.482,137.081 343.126,136.793 343.126 C 136.505 343.126,135.482 342.708,134.519 342.196 C 133.556 341.684,130.650 340.224,128.060 338.950 C 125.471 337.677,122.779 336.327,122.079 335.950 C 120.540 335.120,117.831 335.304,115.254 336.414 C 114.322 336.815,112.458 337.242,111.111 337.363 C 109.765 337.484,108.035 337.897,107.267 338.282 C 106.499 338.667,104.804 339.134,103.501 339.320 C 102.197 339.506,100.076 340.015,98.788 340.451 C 97.500 340.886,96.017 341.243,95.494 341.243 C 94.970 341.243,93.566 341.576,92.374 341.982 C 91.182 342.389,89.176 342.884,87.915 343.082 C 86.654 343.279,84.992 343.705,84.221 344.027 C 83.450 344.349,81.939 344.720,80.863 344.851 C 79.788 344.982,78.145 345.342,77.213 345.651 C 76.281 345.960,74.077 346.520,72.316 346.895 C 69.024 347.596,65.413 348.419,58.192 350.115 C 53.018 351.331,48.654 352.316,44.159 353.284 C 42.242 353.697,39.852 354.304,38.850 354.632 C 34.261 356.132,32.741 354.923,34.290 351.004 C 34.733 349.882,35.257 347.974,35.453 346.764 C 35.649 345.554,36.048 344.198,36.340 343.751 C 36.631 343.304,37.055 341.779,37.280 340.363 C 37.505 338.947,37.947 337.396,38.261 336.916 C 38.576 336.436,39.010 334.883,39.227 333.464 C 39.443 332.046,39.846 330.377,40.121 329.755 C 40.396 329.134,40.873 327.439,41.181 325.989 C 41.703 323.536,42.511 320.355,44.385 313.371 C 44.802 311.817,45.749 308.173,46.489 305.273 C 47.229 302.373,48.162 298.898,48.561 297.552 C 48.961 296.205,49.483 294.341,49.721 293.409 C 50.960 288.560,51.371 287.047,51.872 285.499 C 52.174 284.567,52.591 282.957,52.800 281.921 C 53.008 280.885,53.505 279.177,53.905 278.125 C 55.496 273.940,55.503 270.574,53.925 268.499 C 51.055 264.725,42.694 244.742,40.866 237.288 C 40.587 236.149,40.099 234.539,39.781 233.710 C 39.464 232.881,39.193 231.610,39.180 230.885 C 39.166 230.160,38.810 228.808,38.390 227.880 C 37.969 226.952,37.471 224.979,37.282 223.496 C 37.094 222.012,36.605 219.551,36.194 218.026 C 35.784 216.502,35.265 213.349,35.042 211.020 C 34.818 208.691,34.434 206.318,34.188 205.747 C 33.391 203.897,33.545 173.399,34.369 169.868 C 34.731 168.315,35.194 165.218,35.396 162.986 C 35.598 160.754,35.909 158.636,36.087 158.278 C 36.411 157.626,36.929 155.284,37.607 151.412 C 37.806 150.273,38.230 148.578,38.549 147.646 C 38.868 146.714,39.293 145.104,39.493 144.068 C 39.694 143.032,40.133 141.337,40.471 140.301 C 40.808 139.266,41.526 136.977,42.067 135.217 C 43.356 131.014,46.378 123.043,48.047 119.441 C 50.170 114.857,53.535 108.364,54.293 107.388 C 54.677 106.894,54.991 106.281,54.991 106.026 C 54.991 105.772,55.366 105.085,55.825 104.502 C 56.285 103.918,56.920 102.977,57.238 102.412 C 57.556 101.846,58.184 100.721,58.635 99.913 C 59.086 99.104,59.722 98.222,60.048 97.951 C 60.374 97.681,60.640 97.283,60.640 97.068 C 60.640 96.250,65.800 88.822,69.462 84.369 C 70.229 83.437,71.130 82.335,71.464 81.921 C 77.825 74.041,88.568 63.321,93.597 59.835 C 94.633 59.118,96.054 57.983,96.756 57.315 C 101.425 52.864,110.917 46.382,119.051 42.087 C 120.415 41.367,121.940 40.519,122.441 40.202 C 122.942 39.886,123.776 39.505,124.294 39.356 C 124.812 39.207,125.574 38.786,125.989 38.421 C 126.403 38.056,127.364 37.559,128.124 37.315 C 128.885 37.072,129.707 36.632,129.951 36.337 C 130.196 36.043,130.974 35.693,131.680 35.561 C 132.386 35.428,133.343 35.025,133.807 34.664 C 134.272 34.303,135.259 33.810,136.001 33.568 C 136.743 33.326,138.007 32.793,138.811 32.383 C 139.615 31.974,140.522 31.638,140.827 31.638 C 141.132 31.638,142.071 31.306,142.913 30.900 C 145.061 29.865,153.333 27.330,158.935 25.990 C 167.678 23.900,168.542 23.718,171.563 23.327 C 173.220 23.112,176.017 22.669,177.778 22.342 C 183.201 21.334,197.743 20.943,211.299 21.441 M191.902 55.040 C 188.173 55.213,183.173 55.686,180.791 56.093 C 178.409 56.499,175.557 56.933,174.454 57.058 C 173.350 57.182,171.607 57.615,170.579 58.021 C 169.551 58.426,167.996 58.759,167.124 58.761 C 166.251 58.763,164.687 59.160,163.649 59.644 C 162.610 60.127,161.092 60.648,160.276 60.801 C 159.460 60.955,158.191 61.384,157.456 61.756 C 156.722 62.127,155.527 62.559,154.802 62.715 C 154.077 62.871,153.080 63.315,152.586 63.703 C 152.092 64.090,151.368 64.407,150.977 64.407 C 149.769 64.407,135.562 71.337,131.827 73.748 C 130.687 74.484,128.631 75.819,127.256 76.714 C 125.882 77.610,124.638 78.343,124.492 78.343 C 124.345 78.343,123.351 79.071,122.282 79.960 C 121.213 80.850,119.518 82.164,118.514 82.879 C 112.560 87.125,99.230 100.751,93.975 107.963 C 90.849 112.252,85.429 120.690,84.089 123.352 C 83.672 124.181,82.209 127.033,80.837 129.689 C 79.465 132.346,78.343 134.739,78.343 135.006 C 78.343 135.273,77.979 135.954,77.534 136.520 C 77.089 137.085,76.581 138.324,76.403 139.272 C 76.226 140.221,75.834 141.271,75.531 141.605 C 75.229 141.939,74.729 143.223,74.421 144.458 C 74.112 145.694,73.616 147.467,73.318 148.399 C 70.946 155.816,69.682 161.981,68.337 172.693 C 67.550 178.953,67.542 197.774,68.323 203.955 C 69.141 210.433,69.960 215.513,70.359 216.586 C 70.548 217.097,70.920 218.701,71.184 220.151 C 71.448 221.601,71.896 223.245,72.179 223.804 C 72.462 224.364,72.693 225.137,72.693 225.524 C 72.693 226.421,75.100 233.869,75.873 235.364 C 76.196 235.987,76.460 236.897,76.460 237.385 C 76.460 237.873,76.883 238.846,77.401 239.548 C 77.919 240.250,78.343 241.192,78.343 241.642 C 78.343 242.092,78.651 242.864,79.029 243.358 C 79.406 243.852,80.510 245.866,81.482 247.834 C 82.454 249.802,83.410 251.667,83.606 251.977 C 83.945 252.515,86.163 256.456,87.951 259.699 C 91.891 266.844,92.017 267.180,91.353 268.768 C 91.100 269.373,90.775 270.631,90.630 271.563 C 90.485 272.495,90.036 274.360,89.632 275.706 C 89.001 277.809,88.044 281.494,86.210 288.889 C 85.979 289.821,85.477 291.601,85.095 292.844 C 84.713 294.087,84.156 296.205,83.857 297.552 C 83.558 298.898,83.054 300.763,82.736 301.695 C 82.149 303.421,81.460 305.984,81.104 307.771 C 80.996 308.316,81.063 308.859,81.255 308.977 C 81.699 309.251,87.213 308.241,90.365 307.307 C 91.694 306.913,93.050 306.593,93.378 306.596 C 93.953 306.600,100.059 305.216,104.331 304.112 C 105.471 303.818,108.352 303.143,110.734 302.612 C 113.117 302.081,116.825 301.215,118.975 300.687 C 124.288 299.384,126.280 299.549,129.755 301.581 C 131.205 302.429,135.697 304.763,139.736 306.768 C 143.776 308.773,147.674 310.718,148.399 311.092 C 149.124 311.465,150.235 311.882,150.867 312.019 C 151.500 312.156,152.842 312.686,153.850 313.196 C 154.858 313.707,156.016 314.124,156.422 314.124 C 156.829 314.124,157.690 314.445,158.336 314.838 C 158.982 315.230,160.273 315.668,161.205 315.811 C 162.137 315.955,163.519 316.385,164.276 316.768 C 165.033 317.151,166.902 317.638,168.431 317.850 C 169.959 318.063,171.801 318.484,172.523 318.786 C 173.246 319.088,175.105 319.452,176.655 319.595 C 178.205 319.738,181.422 320.183,183.804 320.583 C 190.142 321.649,210.219 321.643,216.573 320.573 C 218.955 320.173,222.175 319.723,223.729 319.576 C 225.282 319.428,227.316 319.012,228.249 318.653 C 229.181 318.293,230.986 317.894,232.259 317.766 C 233.533 317.638,235.143 317.210,235.838 316.814 C 236.532 316.419,237.836 315.986,238.735 315.853 C 239.635 315.720,241.026 315.276,241.827 314.868 C 242.629 314.459,243.605 314.124,243.997 314.124 C 244.388 314.124,245.456 313.727,246.369 313.242 C 247.282 312.756,248.646 312.243,249.400 312.102 C 250.154 311.960,251.170 311.535,251.657 311.156 C 252.144 310.777,253.176 310.261,253.950 310.008 C 254.724 309.756,255.446 309.405,255.556 309.228 C 255.665 309.051,256.335 308.715,257.045 308.480 C 259.935 307.527,273.804 299.571,276.706 297.203 C 277.359 296.670,278.620 295.725,279.508 295.104 C 291.300 286.852,307.187 269.094,314.354 256.154 C 314.746 255.447,315.510 254.091,316.052 253.141 C 316.594 252.190,318.089 249.294,319.373 246.704 C 320.657 244.115,322.097 241.234,322.573 240.301 C 323.050 239.369,323.549 238.024,323.683 237.313 C 323.817 236.601,324.160 235.754,324.446 235.430 C 324.732 235.105,325.302 233.653,325.713 232.203 C 326.123 230.753,326.925 228.041,327.493 226.177 C 328.567 222.656,329.080 220.480,330.113 215.066 C 330.449 213.305,330.879 211.172,331.069 210.326 C 331.259 209.479,331.592 206.895,331.809 204.582 C 332.026 202.269,332.373 198.555,332.581 196.328 C 333.522 186.222,332.165 168.981,329.533 157.627 C 328.091 151.405,325.660 143.240,324.486 140.678 C 324.011 139.642,323.515 138.176,323.383 137.420 C 323.252 136.664,322.903 135.845,322.608 135.601 C 322.314 135.356,321.872 134.550,321.628 133.808 C 321.383 133.067,320.018 130.282,318.595 127.618 C 317.172 124.955,316.008 122.699,316.008 122.605 C 316.008 122.358,312.977 117.624,309.651 112.677 C 308.072 110.327,306.521 108.013,306.204 107.534 C 302.319 101.657,285.168 84.753,278.480 80.208 C 268.013 73.094,252.247 64.407,249.805 64.407 C 249.572 64.407,248.584 63.983,247.610 63.465 C 246.636 62.947,245.565 62.524,245.230 62.524 C 244.895 62.524,243.995 62.188,243.229 61.777 C 242.462 61.366,241.109 60.919,240.221 60.782 C 239.333 60.646,237.990 60.226,237.236 59.848 C 236.483 59.471,234.767 58.986,233.422 58.771 C 232.078 58.557,230.406 58.144,229.707 57.856 C 229.009 57.567,226.742 57.146,224.670 56.920 C 222.599 56.695,220.311 56.335,219.586 56.120 C 218.285 55.736,210.894 55.191,202.825 54.884 C 200.546 54.797,195.631 54.868,191.902 55.040 M153.107 111.496 C 155.180 112.699,155.872 113.324,157.017 115.028 C 158.390 117.071,158.384 117.062,159.511 119.586 C 160.065 120.829,160.832 122.524,161.214 123.352 C 162.183 125.455,166.091 135.374,168.708 142.373 C 169.056 143.305,169.606 144.576,169.929 145.198 C 170.252 145.819,170.637 146.836,170.786 147.458 C 170.935 148.079,171.335 148.897,171.676 149.274 C 174.534 152.446,169.452 163.650,161.993 170.621 C 158.909 173.503,158.257 176.237,159.941 179.217 C 161.631 182.206,165.025 187.449,167.788 191.337 C 168.745 192.684,169.818 194.209,170.172 194.727 C 173.539 199.644,191.170 215.855,195.469 217.987 C 195.993 218.246,197.185 218.962,198.117 219.577 C 203.926 223.407,217.909 229.755,220.537 229.755 C 223.368 229.755,229.174 223.904,236.236 213.936 C 241.170 206.972,242.704 206.754,253.107 211.542 C 254.247 212.067,255.433 212.654,255.744 212.847 C 256.055 213.040,256.902 213.453,257.627 213.764 C 258.352 214.076,259.200 214.500,259.510 214.706 C 259.821 214.912,260.669 215.336,261.394 215.648 C 262.119 215.960,263.051 216.411,263.465 216.651 C 263.879 216.891,264.727 217.322,265.348 217.607 C 265.970 217.893,266.733 218.292,267.043 218.493 C 267.354 218.695,268.102 219.065,268.706 219.317 C 273.676 221.387,283.484 226.669,283.893 227.495 C 284.433 228.589,284.520 237.375,284.013 239.736 C 281.881 249.681,278.429 255.200,271.563 259.644 C 270.424 260.381,269.063 261.313,268.538 261.714 C 259.161 268.895,241.703 270.655,227.684 265.834 C 227.062 265.620,225.295 265.116,223.757 264.713 C 222.218 264.310,220.523 263.762,219.990 263.496 C 219.457 263.229,218.258 262.822,217.326 262.592 C 216.394 262.362,214.959 261.829,214.139 261.407 C 213.318 260.985,212.328 260.640,211.938 260.640 C 211.549 260.640,210.805 260.306,210.285 259.897 C 209.765 259.488,208.723 259.038,207.969 258.896 C 207.215 258.755,205.851 258.242,204.938 257.756 C 204.025 257.271,203.042 256.874,202.753 256.874 C 199.828 256.874,180.746 245.921,175.141 241.024 C 173.308 239.423,171.111 237.651,169.110 236.158 C 162.458 231.197,145.446 213.062,139.765 204.876 C 135.940 199.362,134.264 196.895,133.522 195.687 C 133.107 195.013,132.165 193.716,131.426 192.805 C 124.027 183.673,117.674 169.230,115.953 157.627 C 115.303 153.240,115.784 141.880,116.730 139.275 C 117.161 138.089,117.514 136.788,117.514 136.384 C 117.514 135.339,119.611 130.223,121.319 127.102 C 123.863 122.451,132.889 112.621,135.127 112.063 C 135.694 111.922,136.667 111.577,137.288 111.296 C 139.176 110.443,139.715 110.393,145.763 110.509 C 151.074 110.611,151.737 110.700,153.107 111.496 " stroke="none" fill="#040404" fill-rule="evenodd"></path></g></svg>